<svg width="84" height="24" viewBox="0 0 84 24" fill="none" xmlns="http://www.w3.org/2000/svg">
    <path d="M50.3448 5.3324C53.2956 5.3324 55.7911 7.62645 55.7911 12.2496C55.7911 16.7501 53.4008 19.1755 50.3362 19.1755C48.1648 19.1755 47.0353 17.9234 46.5187 16.8027H46.4048V22.9493C46.4048 23.6323 46.037 24 45.3541 24H43.7254C43.0425 24 42.6747 23.6323 42.6747 22.9493V6.55829C42.6747 5.87534 43.0425 5.50746 43.7254 5.50745H45.3016C45.9845 5.50746 46.3522 5.87534 46.3522 6.55829V7.7666H46.5187C47.0178 6.67213 48.0946 5.33243 50.3448 5.3324ZM34.3694 5.3324C38.4497 5.3324 40.9889 8.11676 40.9889 12.2845C40.9889 16.4261 38.4497 19.2193 34.3694 19.2193C30.2892 19.2193 27.75 16.4261 27.75 12.2845C27.75 8.11677 30.2892 5.33241 34.3694 5.3324ZM78.0833 5.3324C81.1566 5.33243 83.3367 6.89102 83.9496 9.36017C84.116 10.0606 83.6957 10.481 82.9777 10.481H81.5068C80.8852 10.481 80.5961 10.1744 80.3247 9.59656C79.9394 8.75599 79.1864 8.23938 78.1445 8.23938C76.4108 8.23941 75.2727 9.69285 75.2726 12.232C75.2726 14.8062 76.4021 16.2685 78.1445 16.2686C79.1251 16.2686 79.9132 15.787 80.3247 14.9114C80.5961 14.3335 80.8852 14.027 81.5068 14.027H82.9691C83.6871 14.027 84.1073 14.3948 83.976 15.0165C83.4156 17.5557 81.2879 19.2193 78.1007 19.2193C73.9592 19.2193 71.4813 16.3736 71.4813 12.2845C71.4813 8.16053 74.0031 5.3324 78.0833 5.3324ZM60.8687 2.28516C61.5516 2.28518 61.9193 2.65291 61.9193 3.33582V5.50726H63.399C64.082 5.50726 64.4498 5.87514 64.4498 6.55811V7.25848C64.4498 7.94145 64.082 8.30933 63.399 8.30933H61.9193V14.8237C61.9193 15.8568 62.4359 16.1371 63.1802 16.1371H63.2677C63.8281 16.1108 64.1696 16.2946 64.2834 16.8463L64.4848 17.7832C64.6249 18.4486 64.3621 18.9215 63.6967 19.0353C63.4078 19.0878 63.0575 19.1229 62.6722 19.1404C59.9667 19.2542 58.1718 17.9495 58.1893 15.314V8.30933H57.4012C56.7183 8.30931 56.3505 7.94143 56.3505 7.25848V6.55811C56.3505 5.87516 56.7183 5.50728 57.4012 5.50726H58.1893V3.33582C58.1893 2.6529 58.557 2.28517 59.2399 2.28516H60.8687ZM68.8191 5.50745C69.502 5.50746 69.8697 5.87521 69.8698 6.55811V17.9059C69.8697 18.5888 69.502 18.9565 68.8191 18.9565H67.1904C66.5075 18.9565 66.1397 18.5888 66.1397 17.9059V6.55811C66.1397 5.87522 66.5075 5.50747 67.1904 5.50745H68.8191ZM34.387 8.17804C32.5045 8.17804 31.5414 9.91177 31.5414 12.2584C31.5414 14.6049 32.5045 16.3299 34.387 16.3299C36.2345 16.3299 37.1977 14.6049 37.1977 12.2584C37.1977 9.91179 36.2345 8.17806 34.387 8.17804ZM49.1541 8.30072C47.3417 8.30073 46.3261 9.83292 46.326 12.232C46.326 14.6311 47.3592 16.2072 49.1541 16.2072C50.9841 16.2072 51.9824 14.5786 51.9824 12.232C51.9823 9.90296 51.0016 8.30072 49.1541 8.30072ZM68.0134 0C69.1254 0 70.0362 0.849316 70.0362 1.88251C70.0362 2.92446 69.1254 3.7738 68.0134 3.7738C66.9102 3.77377 65.9996 2.92444 65.9996 1.88251C65.9996 0.849338 66.9102 3.5538e-05 68.0134 0Z" fill="#2C2D30"/>
    <path d="M11.167 1.54044C13.8163 1.1681 16.3351 3.49256 16.8193 6.74161C19.7494 6.24347 22.4511 7.47941 23.0449 9.69571C23.4974 11.3855 22.6031 13.1933 20.918 14.4154C21.8591 16.3696 21.7624 18.4742 20.4854 19.7514C18.7281 21.5085 15.4036 21.0336 13.0605 18.6908C13.0277 18.658 12.996 18.6235 12.9639 18.5902C12.9415 18.6306 12.9207 18.6721 12.8975 18.7123C11.2407 21.5818 8.15324 22.9009 6.00098 21.6586C4.14777 20.5887 3.59314 17.9686 4.53223 15.4291C2.31677 14.7676 0.750364 13.1458 0.75 11.2484C0.75 8.76317 3.43629 6.74845 6.75 6.74845C6.87199 6.74845 6.99309 6.75185 7.11328 6.75724C7.25286 4.07256 8.88841 1.86094 11.167 1.54044ZM15.375 9.00822C14.1272 9.00822 13.875 10.2666 13.875 11.2543C13.8751 12.2415 14.1265 13.5082 15.375 13.5082C16.6235 13.5082 16.8749 12.2415 16.875 11.2543C16.875 10.2665 16.6228 9.00824 15.375 9.00822ZM10.125 9.00431C8.8773 9.00431 8.62503 10.2617 8.625 11.2494C8.625 12.2367 8.87641 13.5043 10.125 13.5043C11.3736 13.5043 11.625 12.2367 11.625 11.2494C11.625 10.2617 11.3727 9.00433 10.125 9.00431Z" fill="#2C2D30"/>
</svg>
